<svg width="24" height="24" viewBox="0 0 24 24" fill="none" xmlns="http://www.w3.org/2000/svg">
<path d="M16.6187 0H16.7894C16.9264 1.69253 16.2804 2.95719 15.4952 3.87301C14.7248 4.78251 13.6699 5.6646 11.9637 5.53076C11.8499 3.86247 12.4969 2.69161 13.281 1.77789C14.0082 0.92636 15.3414 0.168621 16.6187 0ZM21.7837 17.6167V17.6641C21.3042 19.1163 20.6203 20.361 19.7856 21.516C19.0236 22.5646 18.0899 23.9758 16.4226 23.9758C14.982 23.9758 14.0251 23.0494 12.5486 23.0241C10.9867 22.9988 10.1278 23.7987 8.69982 24H8.21293C7.16432 23.8482 6.31805 23.0178 5.70153 22.2695C3.88359 20.0585 2.47877 17.2025 2.21741 13.5476V12.4737C2.32806 9.85799 3.59904 7.73126 5.28841 6.70057C6.17999 6.15255 7.40566 5.68568 8.77043 5.89435C9.35533 5.98498 9.95288 6.18522 10.4767 6.38335C10.973 6.5741 11.5938 6.9124 12.1818 6.89448C12.5802 6.88289 12.9765 6.67527 13.378 6.52878C14.5541 6.10407 15.7071 5.61718 17.2268 5.84587C19.0531 6.12199 20.3494 6.93347 21.1504 8.18548C19.6054 9.16875 18.3839 10.6505 18.5926 13.1809C18.7781 15.4794 20.1144 16.8241 21.7837 17.6167Z" fill="black"/>
</svg>
