<svg width="1024" height="1024" viewBox="0 0 1024 1024" fill="none" xmlns="http://www.w3.org/2000/svg">
<path fill-rule="evenodd" clip-rule="evenodd" d="M804.557 72.1364C802.817 72.6176 796.411 74.2236 790.32 75.7071C784.229 77.1907 775.45 79.3975 770.809 80.6077C766.167 81.8179 761.201 83.0651 759.769 83.3783C758.337 83.6915 756.674 84.3293 756.076 84.7935C755.478 85.2576 753.564 85.9296 751.825 86.2856C750.085 86.6415 742.493 88.3842 734.95 90.1553C727.41 91.9265 717.683 94.102 713.332 94.9904C699.846 97.7382 673.812 104.193 673.256 104.925C672.804 105.523 651.761 110.657 605.759 121.401C599.669 122.825 593.974 124.277 593.105 124.63C590.118 125.843 580.559 128.275 558.83 133.346C543.482 136.925 535.623 138.987 527.943 141.439C525.457 142.233 522.55 142.882 521.482 142.882C520.411 142.882 518.939 143.606 518.205 144.488C517.436 145.417 516.043 145.832 514.913 145.474C513.834 145.132 512.951 145.357 512.951 145.978C512.951 146.596 512.242 147.102 511.371 147.102C509.936 147.102 488.32 153.854 463.911 161.926C458.692 163.652 454.261 165.531 454.068 166.101C453.877 166.673 453.188 167.14 452.539 167.14C451.14 167.14 434.847 173.217 422.255 178.433C417.324 180.478 411.509 182.878 409.336 183.77C407.161 184.661 405.381 185.751 405.381 186.196C405.381 186.64 403.126 187.856 400.37 188.895C392.889 191.723 368.742 204.246 362.299 208.64C359.195 210.758 356.202 212.489 355.65 212.489C355.094 212.489 350.769 214.981 346.034 218.025C341.298 221.072 336.617 224.036 335.626 224.617C334.635 225.198 330.008 228.401 325.344 231.736C320.677 235.07 316.369 237.801 315.771 237.801C315.173 237.801 314.683 238.273 314.683 238.854C314.683 239.435 314.088 239.911 313.364 239.914C312.638 239.916 309.435 242.317 306.246 245.247C303.054 248.18 297.843 252.329 294.662 254.47C291.481 256.614 286.174 261.093 282.868 264.431C279.562 267.765 276.435 270.493 275.917 270.493C274.587 270.493 245.161 299.571 240.785 305.207C238.794 307.769 235.184 311.804 232.76 314.173C230.337 316.54 225.271 322.807 221.504 328.095C217.734 333.383 213.523 338.927 212.142 340.416C210.763 341.905 206.592 348.258 202.873 354.531C199.154 360.804 195.62 366.285 195.02 366.713C194.419 367.14 194.282 367.496 194.718 367.504C195.153 367.513 194.593 368.438 193.471 369.557C191.201 371.827 175.472 403.77 175.472 406.111C175.472 406.928 175.067 407.594 174.575 407.594C172.567 407.594 159.671 444.142 156.433 459.008C155.645 462.633 154.591 465.6 154.09 465.6C153.591 465.6 153.503 466.608 153.893 467.841C154.352 469.282 154.212 469.84 153.5 469.399C152.891 469.023 152.398 469.553 152.401 470.586C152.404 471.614 151.228 478.149 149.787 485.111C142.856 518.612 141.193 556.937 144.983 595.845C146.496 611.361 152.213 645.357 153.384 645.767C153.939 645.961 154.11 646.576 153.768 647.131C153.423 647.689 153.597 648.714 154.15 649.415C154.705 650.115 155.738 653.296 156.448 656.488C159.147 668.621 168.074 696.441 171.408 703.113C172.482 705.265 173.362 707.757 173.362 708.648C173.362 709.542 173.749 710.274 174.222 710.274C174.697 710.274 176.206 713.002 177.576 716.337C182.266 727.746 191.252 745.76 193.647 748.545C194.963 750.076 197.226 753.602 198.676 756.375C202.671 764.029 213.358 779.878 214.519 779.878C215.086 779.878 215.547 780.405 215.547 781.052C215.547 783.002 230.303 801.596 239.127 810.762C249.011 821.027 249.45 820.877 253.422 805.836C254.74 800.842 256.303 796.753 256.89 796.753C257.477 796.753 257.696 796.072 257.377 795.238C257.058 794.406 257.186 793.575 257.662 793.393C258.137 793.21 260.543 787.128 263.009 779.878C265.475 772.629 268.089 765.271 268.821 763.531C269.55 761.791 271.227 757.52 272.546 754.04C273.867 750.561 275.447 746.762 276.057 745.603C276.669 744.444 277.201 743.257 277.244 742.966C277.284 742.676 277.993 741.252 278.819 739.803C280.59 736.688 286.669 723.339 289.383 716.601C292.324 709.3 297.803 698.019 297.834 699.2C297.848 699.778 301.675 692.668 306.334 683.397C310.995 674.128 315.967 665.022 317.382 663.165C318.797 661.312 319.956 659.538 319.956 659.227C319.956 658.917 322.328 654.643 325.23 649.734C328.129 644.825 330.501 640.3 330.501 639.682C330.501 639.064 330.976 638.557 331.557 638.557C332.135 638.557 332.611 638.073 332.611 637.481C332.611 636.12 337.665 628.397 340.752 625.046C342.036 623.648 343.405 621.489 343.793 620.248C344.18 619.009 344.789 617.756 345.145 617.466C345.501 617.175 346.506 615.666 347.375 614.111C348.89 611.403 356.786 600.27 369.788 582.501C373.122 577.943 375.85 573.817 375.85 573.33C375.85 572.843 377.664 570.593 379.879 568.327C384.429 563.671 390.614 555.84 390.614 554.733C390.614 553.984 398.08 544.951 403.798 538.781C405.538 536.902 408.553 533.314 410.495 530.802C417.022 522.377 440.34 497.173 456.531 481.054C473.488 464.168 501.678 438.179 503.036 438.179C503.765 438.179 505.465 436.804 506.812 435.121C510.018 431.117 522.872 420.251 524.401 420.251C525.053 420.251 526.183 419.3 526.907 418.141C527.633 416.982 528.789 416.031 529.475 416.031C530.164 416.031 531.73 414.758 532.955 413.201C534.179 411.646 536.941 409.189 539.094 407.745C541.247 406.301 543.263 404.744 543.573 404.288C543.883 403.833 547.101 401.543 550.726 399.2C554.348 396.859 557.583 394.234 557.916 393.365C558.249 392.497 558.918 392.032 559.402 392.331C559.886 392.63 560.703 392.118 561.222 391.192C561.74 390.267 563.152 388.954 564.36 388.271C567.384 386.562 582.732 376.24 584.642 374.631C585.497 373.911 586.394 373.478 586.633 373.675C586.872 373.868 587.359 373.564 587.712 373C588.788 371.286 603.926 361.191 605.421 361.191C606.187 361.191 606.819 360.835 606.827 360.4C606.833 359.967 608.758 358.688 611.107 357.564C613.453 356.439 616.503 354.471 617.884 353.193C619.265 351.914 620.66 351.134 620.988 351.459C621.312 351.786 621.58 351.419 621.58 350.644C621.58 349.872 621.862 349.522 622.207 349.867C622.551 350.211 625.493 348.79 628.744 346.709C631.996 344.63 639.665 340.584 645.784 337.719C651.903 334.855 657.256 331.965 657.683 331.295C658.111 330.626 658.472 330.555 658.492 331.136C658.509 331.74 658.854 331.691 659.298 331.019C662.436 326.275 673.359 324.288 676.89 327.816C681.588 332.517 678.325 346.216 672.465 346.387C671.739 346.41 671.146 346.928 671.146 347.543C671.146 348.158 670.671 348.366 670.093 348.007C669.512 347.651 669.036 347.76 669.036 348.252C669.036 348.748 666.309 350.516 662.974 352.185C654.685 356.336 638.101 366.428 637.15 367.9C636.72 368.566 636.353 368.632 636.327 368.045C636.299 367.467 635.698 367.718 634.992 368.603C633.662 370.272 621.008 379.119 619.951 379.119C618.502 379.119 606.813 387.756 606.813 388.826C606.813 389.481 606.537 389.74 606.198 389.401C605.862 389.065 604.794 389.501 603.826 390.375C602.861 391.247 596.847 395.598 590.468 400.045C584.087 404.49 575.266 410.974 570.866 414.451C566.467 417.93 561.518 421.726 559.869 422.888C558.218 424.047 555.851 425.946 554.607 427.105C548.2 433.082 538.368 441.343 537.662 441.343C536.73 441.343 534.618 443.168 527.846 449.825C525.164 452.462 521.2 455.919 519.036 457.511C516.875 459.1 507.857 467.534 498.998 476.25C490.143 484.966 481.555 493.255 479.914 494.668C478.274 496.083 477.124 497.239 477.354 497.239C477.585 497.239 474.222 500.918 469.88 505.411C451.345 524.595 447.797 528.416 447.427 529.586C447.214 530.267 443.372 534.655 438.891 539.342C434.409 544.026 429.918 549.166 428.916 550.76C427.13 553.596 419.408 563.232 415.587 567.39C411.164 572.199 396.13 593.1 396.688 593.658C397.021 593.991 396.753 594.264 396.093 594.264C395.429 594.264 392.513 597.704 389.609 601.91C386.707 606.116 383.965 610.031 383.518 610.612C383.071 611.19 382.015 613.004 381.169 614.641C380.326 616.276 378.635 618.648 377.413 619.912C374.503 622.93 371.49 627.33 367.9 633.813C366.294 636.712 363.156 641.849 360.923 645.223C358.694 648.6 356.868 651.542 356.868 651.764C356.868 651.983 355.499 654.204 353.824 656.699C352.153 659.193 348.773 665.03 346.318 669.669C341.481 678.812 336.845 686.976 335.544 688.653C334.097 690.515 325.187 708.253 320.759 718.088C318.396 723.333 315.827 728.265 315.047 729.045C314.267 729.822 313.626 731.055 313.626 731.781C313.626 732.507 312.203 736.041 310.463 739.632C308.723 743.225 307.299 746.44 307.299 746.779C307.299 747.118 306.641 748.889 305.838 750.717C305.033 752.545 303.336 756.888 302.063 760.367C300.79 763.847 299.312 767.52 298.78 768.528C298.244 769.533 297.809 771.077 297.809 771.954C297.809 772.834 297.282 773.551 296.641 773.551C295.998 773.551 295.736 774.232 296.054 775.066C296.373 775.898 296.18 776.729 295.624 776.917C295.066 777.102 293.409 780.809 291.94 785.158C290.471 789.506 288.847 794.01 288.335 795.169C287.424 797.22 281.39 816.702 278.696 826.281C277.964 828.892 276.797 831.976 276.105 833.138C271.896 840.194 256.676 917.176 256.676 931.408C256.676 950.235 274.405 958.405 293.794 948.516C299.927 945.386 314.666 927.883 314.68 923.717C314.68 923.07 315.776 921.407 317.115 920.023C319.612 917.441 329.447 903.582 329.447 902.648C329.447 901.059 349.528 880.648 350.803 880.942C351.239 881.041 351.595 880.62 351.595 880.005C351.595 879.393 352.068 879.182 352.648 879.541C353.229 879.899 353.705 879.786 353.705 879.287C353.705 877.123 364.514 874.583 401.688 868.017C416.771 865.352 433.381 862.416 438.6 861.493C443.822 860.568 448.566 859.509 449.147 859.138C449.728 858.765 451.152 858.387 452.311 858.295C453.473 858.202 462.488 856.408 472.349 854.306C482.209 852.205 492.888 849.984 496.08 849.369C502.41 848.147 525.175 842.389 527.718 841.367C528.587 841.017 530.25 840.55 531.408 840.331C532.567 840.111 533.678 839.468 533.872 838.901C534.065 838.335 534.68 838.152 535.236 838.494C535.791 838.839 536.819 838.659 537.519 838.098C538.217 837.537 542.588 835.889 547.226 834.433C558.283 830.965 574.36 825.051 580.975 822.018C583.876 820.689 586.488 819.552 586.775 819.495C587.066 819.436 591.812 817.18 597.322 814.478C602.832 811.779 611.981 807.351 617.651 804.64C623.323 801.929 628.542 799.159 629.254 798.484C631.142 796.69 647.709 787.262 648.976 787.262C649.568 787.262 650.055 786.786 650.055 786.206C650.055 785.627 650.653 785.152 651.382 785.152C652.114 785.152 654.002 783.956 655.579 782.492C657.157 781.029 658.72 779.961 659.053 780.12C659.386 780.277 660.699 779.423 661.975 778.221C663.247 777.019 665.004 775.772 665.873 775.451C666.744 775.132 671.374 771.962 676.161 768.409C680.95 764.858 685.29 761.951 685.805 761.951C686.318 761.951 687.013 761.239 687.346 760.367C687.682 759.499 688.681 758.787 689.57 758.787C690.458 758.787 691.184 758.42 691.184 757.973C691.184 756.99 706.572 744.026 707.757 744.011C708.212 744.006 712.367 740.21 716.985 735.574C721.607 730.938 725.909 727.148 726.544 727.148C727.991 727.148 733.37 721.619 733.37 720.129C733.37 719.523 737.396 715.277 742.317 710.696C747.237 706.114 751.272 701.974 751.281 701.498C751.301 700.578 762.511 687.517 767.38 682.742C768.975 681.178 770.282 679.621 770.282 679.279C770.282 678.94 774.394 673.328 779.422 666.804C784.448 660.284 788.563 654.347 788.563 653.609C788.563 652.872 788.89 652.268 789.295 652.268C790.26 652.268 798.757 639.104 798.757 637.609C798.757 636.971 799.116 636.45 799.554 636.45C799.993 636.45 800.998 634.989 801.787 633.207C802.575 631.424 804.352 628.745 805.733 627.253C807.117 625.761 808.248 623.898 808.248 623.112C808.248 622.327 808.672 621.686 809.187 621.686C809.706 621.686 810.449 620.407 810.842 618.85C811.232 617.289 812.433 614.775 813.51 613.266C814.586 611.754 817.63 605.885 820.275 600.224C822.921 594.566 825.808 589.21 826.694 588.322C827.579 587.436 828.06 586.317 827.762 585.833C827.463 585.349 827.69 584.794 828.268 584.6C829.339 584.238 836.95 566.627 841.415 554.189C842.768 550.419 844.434 545.908 845.12 544.168C845.803 542.429 846.29 540.823 846.199 540.595C846.108 540.37 846.469 539.897 846.999 539.541C848.107 538.804 852.529 526.557 855.61 515.693C861.245 495.838 866.348 474.954 866.371 471.663C866.379 470.649 866.86 469.818 867.444 469.818C868.028 469.818 868.202 468.869 867.834 467.708C867.467 466.549 867.581 465.6 868.091 465.6C869.469 465.6 874.341 436.271 876.758 413.394C880.372 379.207 881.047 329.296 878.367 294.751C875.659 259.892 869.648 212.262 867.521 208.816C867.168 208.247 866.766 207.059 866.63 206.179C866.493 205.299 864.961 197.46 863.221 188.761C855.194 148.575 848.389 120.572 846.877 121.506C846.27 121.882 846.156 121.352 846.598 120.202C847.008 119.14 846.945 117.992 846.461 117.656C845.977 117.32 844.044 111.349 842.161 104.39C835.085 78.2215 822.28 67.2358 804.557 72.1364ZM153.247 611.571C154.09 612.588 154.132 613.277 153.375 613.744C152.769 614.12 152.27 613.727 152.27 612.87C152.27 612.016 151.675 611.076 150.952 610.783C150.123 610.447 150.075 610.219 150.821 610.168C151.476 610.122 152.566 610.754 153.247 611.571Z" fill="#BA7041"/>
</svg>
